<?xml version="1.0" encoding="UTF-8"?>
<!DOCTYPE svg PUBLIC "-//W3C//DTD SVG 1.1//EN" "http://www.w3.org/Graphics/SVG/1.1/DTD/svg11.dtd">
<!-- Creator: CorelDRAW 2019 (64-Bit) -->
<svg xmlns="http://www.w3.org/2000/svg" xml:space="preserve" width="191.823mm" height="53.5065mm" version="1.1" style="shape-rendering:geometricPrecision; text-rendering:geometricPrecision; image-rendering:optimizeQuality; fill-rule:evenodd; clip-rule:evenodd"
viewBox="0 0 191.4999 53.4163"
 xmlns:xlink="http://www.w3.org/1999/xlink"
 xmlns:xodm="http://www.corel.com/coreldraw/odm/2003">
 <defs>
  <style type="text/css">
   <![CDATA[
    .fil0 {fill:black}
   ]]>
  </style>
 </defs>
 <g id="Layer_x0020_1">
  <metadata id="CorelCorpID_0Corel-Layer"/>
  <path class="fil0" d="M-0 26.7082c0,14.6923 0.0363,26.7081 0.0847,26.7081 0.0726,0 9.9444,-1.8289 11.156,-2.0713l0.6297 -0.1213 0 -19.61 7.5098 0 0 -1.7927c0,-0.9811 0.0362,-3.5367 0.0846,-5.693l0.0726 -3.9002 -7.667 0 0 -8.5998 4.4211 0c2.4344,0 4.421,-0.0242 4.421,-0.0606 0,-0.1334 0.9692,-10.4773 1.0292,-10.9983l0.0729 -0.5691 -21.8146 0 0 26.7082zm181.1797 -25.1456l0 0 -9.6659 0.7991 0 48.2565 0.3996 0.0606c0.3513,0.0608 19.0654,1.417 19.4403,1.405 0.1096,0 0.1463,-1.284 0.1463,-5.9957l0 -5.9958 -8.2372 0 0 -8.721 7.0251 0 0 -10.4166 -7.2667 0 0 -6.9041 0.2782 -0.0487c0.145,-0.0363 1.3806,-0.0847 2.7493,-0.1329 1.3687,-0.0364 3.15,-0.0971 3.9728,-0.1454l1.4785 -0.073 0 -12.924 -0.3277 0.0121c-0.1934,0.012 -4.6875,0.3755 -9.9925,0.8238zm-62.0528 1.6712l0 0c0.1212,1.2115 1.5023,19.4653 1.4779,19.4892 -0.012,0.0243 -1.7927,-4.3485 -3.9609,-9.7142 -2.1562,-5.3658 -3.9728,-9.8113 -4.0215,-9.8958 -0.0726,-0.1334 -3.4155,0.4846 -8.9028,1.6473l-0.5207 0.1089 0 41.6429 10.7805 0 -0.0609 -0.8722c-0.1208,-1.623 -0.5692,-15.0436 -0.5209,-15.5766 0.0365,-0.4725 0.4001,0.3513 3.8398,8.6605 2.0834,5.051 3.8521,9.2296 3.9002,9.3023 0.0727,0.0727 1.7564,-0.0362 4.6149,-0.2786 2.4833,-0.2179 4.5182,-0.4115 4.5182,-0.4239 0.012,-0.012 -0.0487,-8.745 -0.1334,-19.4041 -0.0851,-10.6593 -0.1575,-20.7247 -0.1575,-22.384l-0.0121 -2.9916 -10.9133 0 0.0725 0.6899zm-85.2724 0.0487l0 0c0.7389,-0.0487 1.4657,-0.0726 1.6354,-0.0606 0.1692,0.0245 0.7992,0.0606 1.3927,0.0969 3.7307,0.23 6.9285,2.0832 8.9513,5.1842 2.1196,3.2584 3.1495,7.5096 3.4762,14.3412 0.2906,6.1046 -0.2905,11.967 -1.5746,15.8914 -0.9205,2.8102 -1.8776,4.4575 -3.6339,6.2137 -2.1439,2.1443 -4.53,3.1374 -8.0305,3.3309 -3.0766,0.1821 -6.1894,-0.581 -8.2609,-1.9984 -3.8515,-2.6524 -6.0197,-7.861 -6.6256,-15.8796 -0.1816,-2.4708 -0.0728,-9.5445 0.1821,-11.6278 1.2598,-10.0534 5.2444,-15.0078 12.4877,-15.4919zm1.7079 9.5203l0 0c-0.351,-0.3753 -0.4117,-0.3876 -0.751,-0.1454 -0.6176,0.424 -1.0295,2.1925 -1.2596,5.3902 -0.1574,2.2652 -0.1574,13.0814 0,15.4436 0.2178,3.2338 0.666,5.1837 1.2596,5.5837 1.3811,0.8962 2.011,-3.2826 2.011,-13.336 0,-8.1638 -0.3757,-11.979 -1.26,-12.9362zm15.3102 12.5002l0 0 0 22.0568 11.1073 0 0.0728 -1.5383c0.0484,-0.8596 0.1456,-3.6458 0.2181,-6.2136 0.0726,-2.5679 0.1694,-4.8206 0.2179,-5.0027 0.0608,-0.2542 0.5813,1.3812 2.1801,6.9042 1.1628,3.9852 2.144,7.2918 2.1927,7.3404 0.0966,0.109 11.4586,-0.7876 11.5794,-0.9084 0.0363,-0.0488 -1.2232,-4.0095 -2.7979,-8.8301l-2.8585 -8.7455 0.6055 -0.5329c2.0107,-1.7562 3.6704,-5.1477 4.1424,-8.5026 0.2061,-1.4657 0.0728,-5.0996 -0.2422,-6.4439 -1.2112,-5.2693 -4.4209,-9.363 -8.5152,-10.8893 -1.7806,-0.6542 -1.6348,-0.6418 -10.0535,-0.6905l-7.8489 -0.0483 0 22.0448zm12.4883 -11.6038l0 0c0.8597,0.424 1.5623,1.5141 1.9378,3.016 0.2544,1.0055 0.2181,4.1908 -0.0606,5.2083 -0.5208,1.9139 -1.4414,3.0283 -2.8219,3.4523l-0.2787 0.0726 0 -12.1246 0.3995 0.0851c0.206,0.0362 0.5816,0.1691 0.8239,0.2904zm14.5227 -4.6755l0 0c0,-4.4212 0.0365,-5.6323 0.1576,-5.6323 0.3271,-0.0123 23.4256,1.8291 23.6798,1.8897l0.2667 0.0483 0 11.2645 -6.2987 0 0 30.5237 -11.6281 0 0 -32.4614 -6.1775 0 0 -5.6325zm54.6283 17.5634l0 0 0 21.9843 11.9908 0 0 -43.9689 -11.9908 0 0 21.9846zm25.6778 -20.4582l0 0c-6.564,0.3513 -12.0271,0.6419 -12.1369,0.6419 -0.205,0.0124 -0.218,0.3636 -0.218,5.7051l0 5.6929 6.1775 0 0 31.8559 11.749 0 0 -33.1884 6.542 0 0 -5.6929c0,-3.1373 -0.0366,-5.6806 -0.085,-5.6806 -0.0613,0.0119 -5.463,0.3025 -12.0285,0.6661z"/>
 </g>
</svg>
