<?xml version="1.0" standalone="no"?>
<!DOCTYPE svg PUBLIC "-//W3C//DTD SVG 20010904//EN"
 "http://www.w3.org/TR/2001/REC-SVG-20010904/DTD/svg10.dtd">
<svg version="1.0" xmlns="http://www.w3.org/2000/svg"
 width="2400.000000pt" height="398.000000pt" viewBox="0 0 2400.000000 398.000000"
 preserveAspectRatio="xMidYMid meet">

<g transform="translate(0.000000,398.000000) scale(0.100000,-0.100000)"
fill="#000000" stroke="none">
<path d="M17390 3973 l-1225 -3 -21 -78 -21 -77 -8 78 -7 77 -1253 0 -1252 0
-10 -112 c-10 -111 -10 -111 -12 -38 0 41 -4 92 -7 113 l-7 37 -1253 0 -1254
0 0 -59 c0 -32 -3 -74 -7 -92 -6 -29 -9 -20 -18 56 l-10 90 -1095 3 c-602 2
-1163 0 -1247 -3 l-151 -7 -8 -72 -7 -71 -22 70 -21 70 -602 3 c-331 1 -602 1
-602 0 -1 -2 -22 -151 -48 -333 l-48 -330 -23 60 c-14 33 -34 69 -46 80 -14
12 -62 120 -121 272 l-99 253 -596 0 -597 0 -7 -55 c-3 -30 -10 -55 -14 -55
-4 0 -19 25 -34 55 l-27 55 -589 0 -589 0 -7 -42 c-12 -73 -19 -75 -54 -14
l-31 56 -583 0 -584 0 -58 -227 c-32 -126 -62 -243 -67 -260 l-9 -33 -158 0
-158 0 -29 -110 c-16 -60 -31 -110 -34 -110 -3 0 -127 166 -275 370 l-270 369
-567 1 -566 0 -36 -107 c-19 -60 -234 -724 -476 -1478 -242 -753 -445 -1382
-450 -1397 -8 -26 11 -45 506 -503 l515 -475 562 2 562 3 81 305 c44 168 84
318 88 333 l7 28 45 -50 46 -51 151 -1 152 0 245 -284 245 -284 577 0 577 -1
10 37 c6 21 11 44 11 51 0 23 15 12 50 -38 l35 -50 582 0 582 0 7 50 c4 28 10
52 14 55 3 2 21 -21 39 -51 l33 -54 588 0 587 0 45 312 45 313 93 -190 c51
-104 118 -245 150 -313 l59 -122 594 0 594 0 9 67 9 68 25 -67 25 -68 1237 0
1238 0 1 98 c0 110 12 100 24 -20 l7 -78 1248 0 1248 0 9 103 9 102 8 -102 9
-103 608 0 608 0 10 38 c6 20 14 57 18 82 l7 45 7 -40 c5 -22 8 -59 8 -82 l1
-43 604 0 605 0 22 70 c13 38 25 67 27 65 3 -3 8 -33 11 -67 l6 -63 597 -3
598 -2 29 62 c30 67 35 66 46 -15 l6 -47 592 2 591 3 36 60 35 60 9 -63 9 -62
586 0 587 0 337 480 c201 287 337 489 337 503 0 12 -6 48 -14 80 l-13 57 187
0 187 0 263 365 c145 201 266 362 269 360 2 -3 106 -418 231 -923 l226 -917
574 -3 575 -2 482 482 481 483 -59 205 c-33 113 -133 446 -224 740 -252 823
-237 771 -223 789 7 9 112 135 233 281 122 146 225 271 229 278 5 9 -35 149
-105 368 l-113 354 -1218 0 -1218 0 -39 -60 -39 -60 -14 58 -14 57 -1109 3
c-611 2 -1165 0 -1232 -3 l-121 -7 -28 -61 -27 -62 -9 45 c-16 84 -18 90 -31
88 -6 -2 -563 -4 -1237 -5z m-1389 -627 c26 -252 50 -485 53 -517 l7 -59 -166
0 -166 0 5 -32 c3 -18 8 -59 11 -90 l6 -58 -139 0 c-141 0 -202 -6 -202 -20 0
-17 43 -24 193 -28 l157 -4 0 -34 0 -34 164 0 163 0 6 -37 c16 -109 141 -1402
136 -1407 -11 -11 -334 -19 -461 -11 l-127 7 -7 31 c-3 18 -11 40 -16 51 -14
26 -28 3 -28 -46 l0 -36 -86 -7 c-71 -6 -252 0 -261 9 -2 1 -53 640 -53 659 0
1 98 1 217 -1 208 -3 329 7 363 29 38 24 -22 29 -298 27 l-282 -3 -5 30 c-2
17 -9 100 -15 185 -6 85 -13 176 -16 203 l-6 47 -180 0 -180 0 7 -140 8 -139
-321 -3 -321 -3 -30 -29 c-16 -16 -32 -41 -35 -55 -3 -14 0 -110 8 -212 18
-244 2 -344 -69 -429 -34 -40 -52 -111 -40 -150 6 -19 2 -20 -58 -20 l-65 0
-6 72 c-4 57 -59 1479 -68 1772 l-2 58 44 15 c32 11 77 14 169 11 111 -3 130
-6 157 -25 18 -13 35 -34 38 -49 11 -44 72 -64 203 -64 80 0 124 -5 153 -16
44 -18 60 -13 44 14 -18 29 -64 45 -164 56 -52 7 -102 16 -110 20 -30 17 -62
51 -71 75 -5 13 -29 199 -53 415 -25 215 -48 399 -51 408 -6 15 3 18 72 21 43
1 449 3 903 3 l825 -1 46 -459z m2504 442 c3 -13 86 -493 185 -1068 99 -575
182 -1053 184 -1063 4 -18 -2 -18 -102 -12 -59 4 -266 24 -461 46 -194 21
-371 39 -392 39 -32 0 -39 4 -39 20 0 10 -5 53 -11 95 l-11 75 -184 0 c-169 0
-184 -1 -184 -17 1 -10 27 -209 59 -443 33 -234 56 -428 52 -432 -14 -16 -278
-21 -355 -8 -74 14 -75 14 -83 49 -12 49 -31 51 -39 3 l-6 -39 -62 -9 c-80
-12 -424 -10 -435 2 -8 8 -311 2695 -311 2758 l0 26 1095 0 1095 0 5 -22z
m1508 -22 c4 -24 16 -69 28 -100 25 -69 75 -110 146 -121 60 -9 94 -26 126
-64 22 -27 67 -127 67 -150 0 -4 -33 -14 -74 -21 -71 -12 -259 -9 -379 6 l-48
6 6 -33 c4 -19 30 -144 58 -279 l52 -245 343 -3 342 -2 0 -23 c0 -13 18 -112
40 -221 35 -175 38 -201 26 -224 -7 -15 -16 -39 -20 -54 -5 -23 -12 -27 -58
-32 -111 -14 -447 -18 -499 -7 -29 6 -53 10 -54 9 -2 -2 52 -266 120 -588 78
-371 119 -589 113 -595 -13 -14 -963 -14 -978 1 -5 5 -122 624 -260 1375 -137
750 -252 1374 -255 1387 l-5 22 578 0 579 0 6 -44z m1098 -196 c32 -129 58
-238 59 -242 1 -20 -502 -35 -631 -18 l-96 13 -28 86 c-15 47 -39 101 -52 119
-29 39 -79 72 -108 72 -75 0 -152 57 -178 133 -8 23 -18 50 -22 60 -7 16 19
17 496 15 l503 -3 57 -235z m1984 198 c4 -24 26 -117 50 -208 24 -91 46 -182
50 -202 l6 -38 -40 0 -40 0 40 -152 c70 -265 206 -731 348 -1193 22 -71 39
-130 38 -130 -1 0 -175 3 -387 7 -304 5 -408 10 -494 25 l-110 18 -193 710
c-107 391 -198 711 -203 713 -5 2 -19 36 -31 75 -24 80 -33 75 -27 -12 l4 -58
-68 -11 c-88 -15 -364 -15 -447 1 l-64 12 -63 243 -62 242 843 0 843 0 7 -42z
m584 -190 c41 -128 75 -238 78 -243 11 -30 -283 -46 -416 -23 l-70 12 -41 150
c-39 142 -85 295 -96 324 -5 9 46 12 233 12 l239 0 73 -232z m-19466 214 c3
-4 -45 -223 -107 -487 l-112 -480 -178 -3 c-198 -3 -211 1 -242 59 -15 29 -14
43 7 196 21 155 21 167 5 199 -27 57 -64 67 -247 63 l-156 -4 49 190 c27 105
54 207 59 227 l10 38 352 3 c194 1 398 3 454 5 56 1 104 -1 106 -6z m2537 -4
c0 -24 -67 -438 -71 -442 -2 -3 -36 -1 -74 4 -81 11 -229 13 -263 4 -34 -9
-22 -27 29 -42 48 -15 250 -21 287 -8 16 5 22 4 20 -6 -2 -10 31 -14 152 -18
l155 -5 -3 -30 c-2 -16 -19 -136 -37 -265 -18 -129 -32 -236 -31 -237 1 -1 79
-3 174 -5 166 -3 173 -2 177 17 5 21 75 513 75 524 0 16 244 0 515 -33 165
-20 324 -37 352 -39 45 -2 53 -5 53 -22 0 -22 -237 -2082 -245 -2132 l-6 -31
-95 -7 c-53 -4 -124 -4 -157 1 -62 9 -62 9 -65 45 -2 19 20 188 48 375 28 186
51 355 52 375 1 49 -17 78 -57 95 -45 19 -75 18 -105 -3 -21 -15 -46 -18 -160
-16 -206 2 -328 8 -336 16 -4 4 -76 7 -161 7 -122 0 -153 3 -153 14 0 14 65
476 75 534 l6 32 -179 0 -179 0 -42 -262 c-23 -145 -47 -291 -53 -325 l-10
-62 -36 15 c-36 15 -289 32 -755 50 -149 5 -167 8 -163 23 3 9 82 430 176 935
94 506 173 924 176 928 3 4 210 8 460 8 357 0 454 -3 454 -12z m1580 -5 c0
-10 -14 -132 -30 -272 -17 -140 -30 -255 -30 -256 0 -2 -69 -2 -152 -1 -131 2
-162 6 -213 25 -35 13 -132 32 -235 46 -96 13 -191 29 -210 35 -19 6 -52 8
-74 4 -37 -6 -38 -5 -33 17 3 13 18 113 33 222 l27 197 459 0 c430 0 458 -1
458 -17z m2536 -110 c-4 -71 -9 -181 -12 -245 l-7 -118 -643 0 -644 0 0 -25
c0 -32 -28 -421 -35 -492 l-5 -53 310 0 310 0 0 -202 c0 -202 5 -243 28 -216
21 26 35 114 36 238 2 69 3 137 4 153 l2 27 306 0 307 0 -7 -187 c-4 -104 -9
-225 -13 -270 l-6 -83 -662 0 -662 0 -17 -237 c-9 -131 -19 -266 -23 -300 l-6
-63 537 0 536 0 0 -21 c0 -36 -32 -90 -64 -110 -26 -16 -52 -19 -156 -19 -100
0 -133 -4 -166 -19 -65 -30 -74 -60 -74 -249 l0 -159 -92 -7 c-118 -8 -838 -8
-956 0 -81 6 -92 9 -99 28 -3 12 -6 133 -4 270 1 220 0 252 -15 275 -31 47
-42 50 -169 51 -66 0 -149 3 -185 6 l-66 6 68 632 c37 347 67 641 68 653 0 21
3 21 218 26 201 4 262 11 302 36 8 6 11 14 6 18 -4 4 -122 6 -262 5 -140 -2
-254 0 -254 5 0 4 18 176 40 381 22 205 40 377 40 383 0 5 412 9 1096 9 l1096
0 -6 -127z m2548 5 c3 -68 7 -178 8 -246 l3 -122 -637 0 -638 0 -2 -257 c-3
-223 -5 -258 -18 -256 -8 1 -170 30 -360 63 -190 33 -356 59 -370 58 -56 -7
145 -60 382 -103 213 -38 254 -48 304 -76 l56 -32 -6 -476 c-4 -262 -9 -511
-12 -553 l-6 -78 676 0 675 0 5 -32 c3 -18 8 -148 11 -289 l6 -257 -115 -7
c-63 -4 -159 -4 -213 0 l-99 7 -17 111 c-9 62 -22 151 -27 199 -11 94 -17 118
-30 118 -19 0 -22 -52 -15 -235 l7 -192 -98 -6 c-128 -9 -590 -9 -728 0 -64 3
-109 11 -111 17 -2 6 -6 23 -9 38 -4 19 -20 33 -58 52 -46 23 -63 26 -152 25
-56 0 -117 -6 -136 -13 -44 -17 -43 -33 10 -141 22 -45 40 -85 40 -89 0 -13
-59 2 -95 24 -18 11 -40 35 -48 52 l-16 33 -220 0 c-120 0 -223 3 -227 8 -7 6
18 902 33 1178 l6 117 82 4 c57 3 91 10 110 22 22 14 25 20 14 27 -18 11 -110
11 -167 0 l-44 -9 6 127 c4 69 13 333 21 586 8 253 17 520 21 593 l6 132 1093
0 1093 0 6 -122z m696 73 c0 -27 14 -172 31 -322 16 -150 28 -300 26 -333 -4
-59 -5 -61 -38 -73 -20 -7 -96 -12 -186 -12 l-153 -1 0 38 c0 20 -7 192 -15
382 -8 190 -15 351 -15 358 0 9 42 12 175 12 l175 0 0 -49z m-12112 27 c-3 -7
-34 -111 -69 -230 -48 -164 -66 -215 -75 -207 -8 6 -175 11 -453 12 -289 1
-440 5 -437 12 2 6 33 103 70 218 l67 207 450 0 c357 0 450 -3 447 -12z m3482
5 c0 -5 -23 -125 -51 -268 l-51 -260 -196 -3 c-108 -1 -200 -6 -205 -11 -20
-20 80 -35 235 -35 152 -1 157 -2 152 -21 -2 -11 -99 -501 -214 -1090 -116
-588 -214 -1073 -218 -1077 -12 -12 -297 -20 -401 -11 l-95 8 -13 53 c-12 47
-11 65 12 189 28 152 30 173 15 173 -29 0 -100 -256 -100 -362 l0 -58 -200 0
c-110 0 -200 4 -200 8 0 11 609 2743 615 2760 3 9 105 12 460 12 250 0 455 -3
455 -7z m-3623 -477 c-4 -10 16 -15 91 -19 54 -4 123 -7 155 -7 39 0 57 -4 57
-13 0 -10 -120 -439 -145 -516 l-6 -21 346 0 c298 0 346 2 351 15 5 13 82 15
613 14 333 -1 617 -4 632 -8 l25 -6 -200 -861 -201 -861 -80 -9 c-106 -11
-741 -11 -832 0 -42 5 -73 14 -73 20 0 6 65 270 145 586 79 316 142 576 140
578 -2 2 -31 -2 -65 -9 -39 -8 -86 -9 -133 -4 -40 4 -90 8 -112 9 l-40 1 -67
-250 c-37 -137 -72 -267 -78 -287 l-11 -38 -319 0 c-176 0 -320 1 -320 3 0 1
36 130 79 287 44 157 78 286 76 288 -2 2 -27 -1 -55 -7 -66 -14 -116 -14 -212
1 -43 6 -80 9 -84 6 -3 -3 -38 -115 -77 -249 l-72 -243 -60 -13 c-35 -7 -138
-12 -243 -13 -181 0 -183 0 -207 25 -31 30 -32 68 -4 155 28 89 27 129 -4 156
-23 20 -30 21 -79 12 -37 -7 -76 -7 -131 1 -43 7 -87 9 -99 5 -18 -5 -20 -3
-15 17 3 13 95 300 204 639 l197 615 438 -3 c285 -2 444 1 456 7 23 14 25 13
19 -3z m1590 -32 c19 -3 42 -17 57 -35 31 -36 32 -67 11 -219 -16 -113 -29
-139 -85 -177 -33 -23 -37 -23 -366 -23 -184 0 -334 3 -334 8 0 4 27 104 59
222 l58 215 162 3 c88 1 161 6 161 10 0 8 224 5 277 -4z m17867 -531 c9 -32
126 -515 126 -522 0 -28 -466 -43 -595 -19 l-63 11 16 33 c15 32 13 46 -22
256 -21 123 -40 231 -42 241 -5 16 13 17 285 17 267 0 290 -1 295 -17z m-7781
-775 l6 -198 -610 0 -610 0 7 193 c3 105 7 198 10 205 3 9 129 12 589 12 l585
0 1 33 c3 89 17 -64 22 -245z m-12840 12 c59 0 71 -3 92 -25 16 -15 25 -35 25
-56 0 -17 -36 -142 -80 -277 -44 -135 -80 -252 -80 -259 0 -25 23 -61 47 -72
15 -7 116 -11 288 -11 246 0 265 -1 265 -17 -1 -10 -15 -67 -33 -128 l-33
-110 -80 -10 c-101 -12 -750 -12 -831 0 l-61 10 119 370 c66 204 135 421 155
484 l36 114 51 -7 c29 -3 83 -6 120 -6z m5199 -140 c406 -21 484 -29 516 -58
19 -17 18 -25 -40 -387 -33 -203 -62 -371 -63 -373 -8 -8 -358 -14 -437 -8
l-88 8 0 46 c0 26 7 74 15 107 18 74 19 119 4 109 -20 -12 -68 -131 -81 -198
-11 -58 -15 -66 -35 -66 -21 0 -21 -1 -6 -31 8 -16 17 -49 20 -72 4 -40 3 -41
-11 -22 -9 10 -23 42 -32 70 l-16 50 -154 1 c-85 0 -157 3 -160 7 -7 6 141
822 152 839 3 4 9 6 14 3 5 -3 186 -15 402 -25z m1795 -7 c46 -30 46 -52 -7
-404 -28 -182 -50 -348 -50 -369 l0 -38 -127 -7 c-121 -7 -470 -2 -479 8 -5 5
102 773 110 785 10 16 148 34 316 40 179 8 204 6 237 -15z m7123 20 c0 -5 12
-192 26 -416 15 -224 24 -411 20 -414 -10 -10 -557 -16 -706 -8 l-135 7 47 97
c25 53 62 114 82 136 41 45 43 57 26 259 -17 200 -15 264 7 295 37 49 48 51
351 51 155 0 282 -3 282 -7z m8792 -183 c89 -293 189 -633 186 -634 -42 -27
-768 -38 -919 -14 l-77 12 -96 352 c-53 194 -96 356 -96 362 0 26 123 36 520
42 223 3 414 6 425 6 16 -1 26 -22 57 -126z m-5182 -49 c239 -27 443 -52 452
-56 10 -4 19 -14 22 -23 15 -56 87 -514 81 -520 -9 -9 -971 -9 -981 1 -4 4
-28 151 -54 327 l-47 320 46 0 c25 0 242 -22 481 -49z m-17064 -16 c-3 -8 -22
-71 -42 -140 l-37 -125 -248 0 -247 0 -26 31 c-30 36 -31 40 -11 105 15 52 56
99 110 127 44 23 510 25 501 2z m9410 -182 c-3 -98 -9 -228 -13 -289 l-6 -111
-90 -7 c-115 -8 -412 -8 -498 0 l-66 7 4 131 c5 148 13 177 57 209 28 20 47
23 178 27 146 5 147 5 177 34 34 32 51 79 51 139 l0 37 106 0 107 0 -7 -177z
m-1970 124 l35 -38 -3 -244 -2 -244 -86 -7 c-79 -6 -339 1 -348 10 -4 5 45
490 54 539 l6 28 155 -3 155 -3 34 -38z m8426 -631 c-12 -25 -26 -46 -31 -46
-14 0 -14 9 0 51 16 45 30 62 42 50 5 -5 1 -26 -11 -55z m-8403 -23 c21 -43
65 -179 75 -235 17 -94 -42 -3 -89 136 -39 116 -29 183 14 99z m6857 -7 c-3
-14 -18 -38 -32 -53 l-25 -28 6 30 c11 51 37 97 48 86 5 -5 7 -21 3 -35z
m-11241 -93 c115 -127 134 -153 112 -153 -18 0 -118 98 -165 163 -109 147 -87
143 53 -10z m8649 -44 c0 -77 -22 -170 -48 -204 -14 -18 -15 -14 -16 60 0 71
20 191 36 217 3 5 11 7 17 5 8 -3 12 -30 11 -78z m6526 -199 c30 -4 53 -8 50
-9 -7 -3 -369 -30 -405 -30 l-30 0 27 14 c55 30 233 43 358 25z m-18335 -10
c137 -15 161 -20 144 -31 -33 -21 -245 0 -296 30 -24 14 31 14 152 1z m15894
-1 c28 -6 61 -19 73 -29 l23 -18 -28 -7 c-29 -8 -206 9 -261 23 -44 12 -43 30
1 35 79 8 144 7 192 -4z m-9494 -124 c-28 -22 -82 -35 -142 -35 -54 0 -72 15
-30 25 82 19 107 23 147 24 42 0 44 -1 25 -14z m6606 -51 c37 -8 75 -22 85
-30 17 -14 10 -15 -72 -10 -79 5 -201 25 -256 42 -10 3 -18 10 -18 16 0 14
171 3 261 -18z"/>
<path d="M14720 3258 c0 -29 7 -147 15 -263 8 -115 15 -220 15 -232 0 -23 0
-23 180 -23 l180 0 0 23 c0 12 -9 137 -20 277 -11 140 -20 258 -20 263 0 4
-79 7 -175 7 l-175 0 0 -52z"/>
<path d="M16880 3342 c0 -25 23 -212 36 -289 l5 -33 189 0 c104 0 191 -3 193
-7 3 -5 8 -36 12 -70 l7 -63 -96 0 c-53 0 -96 -1 -96 -3 0 -7 60 -467 66 -499
l6 -38 115 0 114 0 -5 53 c-3 28 -7 70 -8 92 l-3 40 172 3 172 2 5 -32 c3 -18
10 -60 16 -92 5 -33 10 -61 10 -63 0 -2 52 -3 115 -3 75 0 115 4 115 11 0 10
-64 430 -75 497 l-6 32 -94 0 c-106 0 -97 -8 -110 93 l-6 47 201 0 c187 0 201
1 196 18 -2 9 -14 80 -26 157 -12 77 -24 148 -26 158 -5 15 -24 17 -220 17
-118 0 -214 -1 -214 -2 0 -2 9 -73 20 -158 11 -85 20 -158 20 -162 0 -10 -238
-9 -300 0 l-45 7 -22 155 c-11 85 -22 156 -22 158 -1 1 -93 2 -206 2 l-205 0
0 -28z"/>
</g>
</svg>
