<?xml version="1.0" standalone="no"?>
<!DOCTYPE svg PUBLIC "-//W3C//DTD SVG 20010904//EN"
 "http://www.w3.org/TR/2001/REC-SVG-20010904/DTD/svg10.dtd">
<svg version="1.0" xmlns="http://www.w3.org/2000/svg"
 width="600.000000pt" height="94.000000pt" viewBox="0 0 600.000000 94.000000"
 preserveAspectRatio="xMidYMid meet">

<g transform="translate(0.000000,94.000000) scale(0.100000,-0.100000)"
fill="#000000" stroke="none">
<path d="M1367 933 c-7 -12 -187 -713 -187 -729 0 -7 17 -18 38 -23 366 -96
668 -171 685 -171 20 0 29 26 116 366 51 201 91 367 89 369 -2 3 -163 45 -357
95 -194 50 -359 94 -366 96 -7 3 -15 2 -18 -3z m316 -395 c49 -12 49 -12 43
-47 -3 -20 -11 -53 -17 -74 -11 -42 -13 -42 -114 -13 -44 14 -44 14 -19 105
13 47 18 52 37 47 12 -4 44 -12 70 -18z"/>
<path d="M300 471 l0 -391 170 0 170 0 0 145 c0 159 1 161 59 130 39 -20 68
-84 84 -185 l13 -85 174 0 175 0 -3 39 c-8 86 -61 222 -116 295 l-26 35 29 30
c44 47 55 75 55 142 0 100 -53 171 -156 211 -35 14 -94 17 -335 21 l-293 4 0
-391z m414 208 c20 -16 26 -29 26 -59 0 -45 -26 -70 -72 -70 l-28 0 0 75 c0
72 1 75 24 75 13 0 35 -9 50 -21z"/>
<path d="M2195 847 c-3 -6 -4 -181 -3 -387 l3 -375 300 0 c345 0 373 4 441 69
90 87 80 234 -21 296 l-34 21 38 37 c94 89 71 242 -45 304 -71 39 -152 48
-432 48 -185 0 -244 -3 -247 -13z m430 -172 c47 -46 22 -111 -47 -122 l-38 -6
0 77 0 76 30 0 c19 0 40 -9 55 -25z m-11 -266 c31 -15 50 -66 37 -100 -12 -33
-29 -45 -73 -53 l-38 -7 0 86 c0 84 0 85 25 85 13 0 35 -5 49 -11z"/>
<path d="M3105 847 c-3 -6 -4 -181 -3 -387 l3 -375 318 -3 317 -2 0 100 0 100
-150 0 -150 0 0 290 0 290 -165 0 c-124 0 -167 -3 -170 -13z"/>
<path d="M3850 470 l0 -390 385 0 385 0 0 390 0 390 -385 0 -385 0 0 -390z
m455 0 l0 -75 -70 0 -70 0 -3 64 c-4 92 -4 92 75 89 l68 -3 0 -75z"/>
<path d="M4720 854 c0 -3 65 -88 145 -189 80 -101 145 -186 145 -190 0 -4 -65
-92 -145 -195 -80 -103 -145 -191 -145 -194 0 -3 81 -6 180 -6 l180 0 57 75
c32 41 61 74 65 75 4 0 34 -34 68 -75 l61 -75 181 0 c151 0 179 2 175 14 -3 8
-67 92 -143 188 -75 95 -141 178 -146 184 -6 8 39 74 132 194 77 100 140 186
140 191 0 5 -77 9 -179 9 l-178 0 -54 -70 c-29 -38 -56 -70 -59 -70 -3 0 -22
21 -42 48 -77 100 -56 92 -258 92 -99 0 -180 -3 -180 -6z"/>
</g>
</svg>
